<mxfile host="app.diagrams.net" modified="2023-04-17T08:44:30.618Z" agent="Mozilla/5.0 (Windows NT 10.0; Win64; x64) AppleWebKit/537.36 (KHTML, like Gecko) Chrome/112.0.0.0 Safari/537.36" version="21.1.8" etag="eFiYXEd2XnncQPpbE-ej" type="github">
  <diagram name="페이지-1" id="f1vrqMb9APHspmezzCpp">
    <mxGraphModel>
      <root>
        <mxCell id="0" />
        <mxCell id="1" parent="0" />
      </root>
    </mxGraphModel>
  </diagram>
</mxfile>
